<?xml version="1.0" encoding="UTF-8"?>
<svg id="_Слой_1" data-name="Слой 1" xmlns="http://www.w3.org/2000/svg" xmlns:xlink="http://www.w3.org/1999/xlink" viewBox="0 0 113.39 21.14">
  <defs>
    <style>
      .cls-1 {
        fill: #1d1d1b;
      }

      .cls-2 {
        fill: none;
      }

      .cls-3 {
        clip-path: url(#clippath-1);
      }

      .cls-4 {
        clip-path: url(#clippath-3);
      }

      .cls-5 {
        clip-path: url(#clippath-2);
      }

      .cls-6 {
        clip-path: url(#clippath);
      }
    </style>
    <clipPath id="clippath">
      <rect class="cls-2" width="113.39" height="21.14"/>
    </clipPath>
    <clipPath id="clippath-1">
      <rect class="cls-2" width="113.39" height="21.14"/>
    </clipPath>
    <clipPath id="clippath-2">
      <rect class="cls-2" width="113.39" height="21.14"/>
    </clipPath>
    <clipPath id="clippath-3">
      <rect class="cls-2" width="113.39" height="21.14"/>
    </clipPath>
  </defs>
  <g class="cls-6">
    <path class="cls-1" d="M8.61,20.77l-5.96-3.44,2.14-1.23,4.89,2.82c.18.1.4.1.58,0l4.95-2.86,2.14,1.23-6.02,3.47c-.84.49-1.88.49-2.72,0"/>
    <path class="cls-1" d="M20.04,5.83v6.88l-2.14-1.24v-5.64c0-.21-.11-.4-.29-.5l-4.95-2.86V0l6.02,3.47c.84.49,1.36,1.39,1.36,2.36"/>
    <path class="cls-1" d="M0,5.83v6.88l2.14-1.24v-5.64c0-.21.11-.4.29-.5l4.95-2.86V0L1.36,3.47c-.84.49-1.36,1.39-1.36,2.36"/>
  </g>
  <polygon class="cls-1" points="14.37 14.12 14.8 13.39 9.98 10.6 5.13 13.4 5.55 14.12 14.37 14.12"/>
  <polygon class="cls-1" points="4.63 12.49 9.48 9.69 9.48 3.96 8.77 3.96 4.24 11.82 4.63 12.49"/>
  <polygon class="cls-1" points="10.48 3.96 10.48 9.69 15.3 12.47 15.71 11.75 11.22 3.96 10.48 3.96"/>
  <polygon class="cls-1" points="34.24 6.42 26.4 6.42 26.4 14.45 28.8 14.45 28.8 8.28 34.24 8.28 34.24 6.42"/>
  <g class="cls-3">
    <path class="cls-1" d="M37.96,14.45h-2.37V6.42h5.54c.79,0,1.44.04,1.94.11.5.08.9.22,1.18.43.28.2.48.49.59.87.11.37.17.86.17,1.45v.21c0,.6-.06,1.09-.17,1.47-.11.37-.3.66-.59.87-.28.21-.68.35-1.18.43-.5.08-1.15.11-1.94.11h-3.18v2.08ZM40.73,10.58c.45,0,.8-.01,1.05-.04.26-.03.45-.08.58-.16.13-.09.21-.2.24-.34.04-.15.06-.35.06-.6v-.1c0-.25-.02-.45-.06-.6-.03-.15-.11-.27-.24-.34-.13-.09-.33-.14-.58-.17-.26-.03-.61-.04-1.05-.04h-2.76v2.39h2.76Z"/>
  </g>
  <path class="cls-1" d="M52.16,11.33l-1.67-3.23h-.06l-1.64,3.23h3.36ZM56.33,14.45h-2.58l-.74-1.44h-5.07l-.73,1.44h-2.56l4.37-8.04h2.92l4.39,8.04Z"/>
  <g class="cls-5">
    <path class="cls-1" d="M64.23,9.58c.25,0,.44-.05.57-.16.14-.1.21-.3.21-.59,0-.3-.07-.51-.21-.61-.13-.11-.32-.16-.57-.16h-4.3v1.51h4.3ZM64.29,12.74c.36,0,.61-.07.74-.2.14-.14.21-.35.21-.63s-.07-.49-.21-.61c-.13-.12-.38-.19-.74-.19h-4.36v1.62h4.36ZM57.56,14.45V6.42h6.54c.62,0,1.13.03,1.54.1.42.07.75.18,1,.34.25.15.42.36.53.61.1.26.16.57.16.95,0,.56-.1.98-.3,1.25-.2.27-.47.46-.83.57v.03c.45.08.79.26,1.03.56.24.29.36.73.36,1.3,0,.46-.06.84-.17,1.14-.11.29-.29.53-.53.71-.24.17-.54.29-.9.37-.36.07-.79.1-1.28.1h-7.14Z"/>
  </g>
  <polygon class="cls-1" points="69.14 14.45 72.71 14.45 77.42 8.44 77.47 8.44 77.47 14.45 79.81 14.45 79.81 6.42 76.18 6.42 71.53 12.43 71.49 12.43 71.49 6.42 69.14 6.42 69.14 14.45"/>
  <polygon class="cls-1" points="87.2 14.45 84.82 14.45 84.82 8.23 81.35 8.23 81.35 6.42 90.67 6.42 90.67 8.23 87.2 8.23 87.2 14.45"/>
  <g class="cls-4">
    <path class="cls-1" d="M96.89,12.69c.69,0,.98-.02,1.37-.06.4-.04.69-.13.88-.27.2-.15.32-.38.36-.67.05-.29.07-.69.07-1.2v-.13c0-.51-.02-.92-.07-1.21-.04-.3-.16-.53-.36-.67-.19-.15-.49-.25-.88-.28-.39-.04-.68-.06-1.37-.06h-.2c-.7,0-1,.02-1.39.06-.39.04-.68.13-.88.28-.19.14-.31.37-.36.67-.04.3-.06.7-.06,1.21v.13c0,.5.02.9.06,1.2.05.3.17.52.36.67.2.14.49.23.88.27.39.04.68.06,1.39.06h.2ZM96.61,14.55c-.77,0-1.18-.02-1.74-.06-.55-.03-1.02-.09-1.41-.18-.39-.11-.71-.25-.95-.43-.24-.18-.42-.42-.56-.71-.13-.29-.22-.65-.27-1.08-.05-.43-.07-.94-.07-1.54v-.23c0-.6.02-1.11.07-1.54.05-.43.14-.79.27-1.08.13-.3.32-.55.56-.73.25-.18.56-.32.95-.41.39-.1.86-.16,1.41-.19.56-.04.97-.06,1.74-.06h.37c.77,0,1.18.02,1.73.06.56.03,1.04.09,1.42.19s.7.23.94.41c.25.18.44.42.57.73.13.29.22.66.27,1.08.05.43.07.94.07,1.54v.23c0,.6-.02,1.11-.07,1.54-.05.43-.14.79-.27,1.1-.13.3-.32.53-.57.71-.24.18-.55.32-.94.41-.39.09-.86.16-1.42.18-.55.04-.96.06-1.73.06h-.37Z"/>
  </g>
  <polygon class="cls-1" points="110.99 6.42 110.99 9.35 105.68 9.35 105.68 6.42 103.28 6.42 103.28 14.45 105.68 14.45 105.68 11.35 110.99 11.35 110.99 14.45 113.39 14.45 113.39 6.42 110.99 6.42"/>
</svg>