<?xml version="1.0" encoding="UTF-8"?>
<svg id="_Слой_1" data-name="Слой 1" xmlns="http://www.w3.org/2000/svg" xmlns:xlink="http://www.w3.org/1999/xlink" viewBox="0 0 38.01 34.06">
  <defs>
    <style>
      .cls-1 {
        fill: none;
      }

      .cls-2 {
        clip-path: url(#clippath-1);
      }

      .cls-3 {
        clip-path: url(#clippath);
      }
    </style>
    <clipPath id="clippath">
      <rect class="cls-1" width="38.01" height="34.06"/>
    </clipPath>
    <clipPath id="clippath-1">
      <rect class="cls-1" width="38.01" height="34.06"/>
    </clipPath>
  </defs>
  <g class="cls-3">
    <path d="M20.17,22.98c0,.65-.53,1.18-1.18,1.18s-1.19-.53-1.19-1.18.53-1.18,1.19-1.18,1.18.53,1.18,1.18"/>
    <path d="M21.35,12.32c0,1.31-1.06,2.37-2.37,2.37s-2.37-1.06-2.37-2.37,1.06-2.37,2.37-2.37,2.37,1.06,2.37,2.37"/>
    <path d="M21.24,27.28c0,1.23-1,2.22-2.23,2.22s-2.23-1-2.23-2.22,1-2.22,2.23-2.22,2.23,1,2.23,2.22"/>
  </g>
  <polygon points="21.35 12.32 16.61 12.32 17.8 22.98 20.17 22.98 21.35 12.32"/>
  <g class="cls-2">
    <path d="M19,0C17.49,0,16.08.81,15.32,2.13L.57,27.67c-.76,1.31-.76,2.94,0,4.26.76,1.31,2.17,2.13,3.68,2.13h29.5c1.51,0,2.93-.81,3.69-2.13.76-1.31.76-2.94,0-4.26L22.69,2.13C21.93.81,20.52,0,19,0M19,3.55c.24,0,.47.12.61.35l14.75,25.55c.27.47-.07,1.05-.61,1.05H4.25c-.54,0-.88-.58-.61-1.05L18.4,3.9c.14-.23.37-.35.61-.35"/>
  </g>
</svg>